<?xml version="1.0" encoding="utf-8"?>
<!-- Generator: Adobe Illustrator 15.1.0, SVG Export Plug-In . SVG Version: 6.00 Build 0)  -->
<!DOCTYPE svg PUBLIC "-//W3C//DTD SVG 1.1//EN" "http://www.w3.org/Graphics/SVG/1.1/DTD/svg11.dtd">
<svg version="1.1" id="Layer_1" xmlns="http://www.w3.org/2000/svg" xmlns:xlink="http://www.w3.org/1999/xlink" x="0px" y="0px"
	 width="1000px" height="1000px" viewBox="0 0 1000 1000" enable-background="new 0 0 1000 1000" xml:space="preserve">
<path fill="#FABA13" d="M826.839,312.946v374.092c0,28.383-8.447,54.785-22.98,76.826c-10.557,16.027-24.307,29.734-40.363,40.221
	c-21.971,14.391-48.229,22.754-76.441,22.754H312.962c-77.209,0-139.801-62.59-139.801-139.801V312.946
	c0-77.208,62.592-139.785,139.801-139.785h374.092C764.263,173.161,826.839,235.738,826.839,312.946z"/>
<path fill="#FDE402" d="M755.601,312.946v374.092c0,37.814-30.748,68.563-68.547,68.563H312.962
	c-20.346,0-38.641-8.906-51.221-23.025c-10.786-12.111-17.34-28.066-17.34-45.537V312.946c0-37.8,30.746-68.546,68.561-68.546
	h374.092C724.853,244.4,755.601,275.146,755.601,312.946z"/>
<path fill="#FFFFFF" d="M483.466,490.332c-13.266,14.548-22.625,32.7-26.4,52.804l-52.491-46.805l-40.648-36.246l-102.186,272.49
	c-10.786-12.111-17.34-28.066-17.34-45.537v-70.541l95.361-254.296l95.859,85.475L483.466,490.332z"/>
<path fill="#010101" d="M803.858,763.864c-10.557,16.027-24.307,29.734-40.363,40.221L663.188,703.78
	c-28.938,20.631-63.473,31.758-99.748,31.758c-95.035,0-172.357-77.309-172.357-172.355c0-23.693,4.803-46.291,13.492-66.852
	c7.594-17.966,18.153-34.394,31.047-48.655c31.572-34.88,77.182-56.836,127.818-56.836c38.824,0,74.688,12.909,103.525,34.65
	l-39.566,50.453c-17.924-13.193-40.053-20.988-63.959-20.988c-31.646,0-60.17,13.649-79.975,35.377
	c-13.266,14.548-22.625,32.7-26.4,52.804c-1.227,6.498-1.867,13.193-1.867,20.047c0,59.684,48.557,108.24,108.242,108.24
	c28.906,0,56.092-11.254,76.523-31.701c20.447-20.445,31.688-47.617,31.688-76.539c0-14.52-2.863-28.367-8.078-41.02l43.016-54.84
	c18.422,27.411,29.178,60.41,29.178,95.859c0,36.531-11.283,71.311-32.199,100.377L803.858,763.864z"/>
<circle fill="#00CC00" cx="563.237" cy="563.647" r="111.899"/>
<path fill="#FFFFFF" d="M743.528,420.229l-36.939,47.095l-43.016,54.84l-94.676,120.693l-111.832-99.721
	c3.775-20.104,13.135-38.256,26.4-52.804l78.051,69.587l65.883-83.976l39.566-50.453l33.227-42.361L743.528,420.229z"/>
</svg>
