<?xml version="1.0" encoding="utf-8"?>
<!-- Generator: Adobe Illustrator 15.1.0, SVG Export Plug-In . SVG Version: 6.00 Build 0)  -->
<!DOCTYPE svg PUBLIC "-//W3C//DTD SVG 1.1//EN" "http://www.w3.org/Graphics/SVG/1.1/DTD/svg11.dtd">
<svg version="1.1" id="Layer_1" xmlns="http://www.w3.org/2000/svg" xmlns:xlink="http://www.w3.org/1999/xlink" x="0px" y="0px"
	 width="1000px" height="1000px" viewBox="0 0 1000 1000" enable-background="new 0 0 1000 1000" xml:space="preserve">
<path fill="#FABA13" d="M686.374,338.747v213.317c0,16.187-4.818,31.242-13.104,43.809c-6.019,9.142-13.858,16.955-23.016,22.938
	c-12.532,8.206-27.502,12.974-43.591,12.974h-213.32c-44.024,0-79.718-35.69-79.718-79.72V338.747
	c0-44.028,35.693-79.711,79.718-79.711h213.32C650.691,259.036,686.374,294.719,686.374,338.747z"/>
<path fill="#FDE402" d="M645.75,338.747v213.317c0,21.564-17.531,39.096-39.087,39.096h-213.32c-11.6,0-22.033-5.076-29.208-13.128
	c-6.148-6.905-9.886-16.005-9.886-25.968V338.747c0-21.556,17.532-39.087,39.094-39.087h213.32
	C628.219,299.66,645.75,317.191,645.75,338.747z"/>
<path fill="#FFFFFF" d="M490.571,439.896c-7.567,8.294-12.901,18.648-15.055,30.111l-29.932-26.69l-23.177-20.67l-58.273,155.385
	c-6.148-6.905-9.886-16.005-9.886-25.968v-40.223l54.377-145.011l54.663,48.74L490.571,439.896z"/>
<path fill="#010101" d="M673.27,595.873c-6.019,9.142-13.858,16.955-23.016,22.938l-57.197-57.199
	c-16.502,11.765-36.193,18.109-56.881,18.109c-54.19,0-98.285-44.083-98.285-98.283c0-13.511,2.738-26.395,7.694-38.12
	c4.33-10.242,10.352-19.612,17.705-27.746c18.002-19.888,44.013-32.406,72.886-32.406c22.138,0,42.588,7.358,59.036,19.758
	l-22.565,28.768c-10.222-7.52-22.838-11.968-36.471-11.968c-18.045,0-34.312,7.782-45.604,20.174
	c-7.567,8.294-12.901,18.648-15.055,30.111c-0.697,3.704-1.063,7.521-1.063,11.43c0,34.035,27.688,61.727,61.723,61.727
	c16.482,0,31.984-6.42,43.636-18.078c11.66-11.662,18.07-27.154,18.07-43.648c0-8.279-1.634-16.175-4.604-23.389l24.527-31.271
	c10.504,15.631,16.638,34.447,16.638,54.659c0,20.832-6.435,40.664-18.361,57.238L673.27,595.873z"/>
<circle fill="#00CC00" cx="536.523" cy="481.92" r="64.121"/>
<path fill="#FFFFFF" d="M638.868,399.921l-21.063,26.857l-24.527,31.271l-53.991,68.823l-63.77-56.864
	c2.154-11.463,7.488-21.817,15.055-30.111l44.508,39.68l37.567-47.886l22.565-28.768l18.945-24.158L638.868,399.921z"/>
<g>
	<path d="M159.348,726.369v-49.596h14.973l8.975,33.819l8.927-33.819h15.02v49.596h-9.304v-39.016l-9.873,39.016h-9.635
		l-9.777-39.016v39.016H159.348z"/>
	<path d="M214.895,707.899c0-3.147,0.78-6.203,2.338-9.163c1.56-2.959,3.763-5.219,6.613-6.777c2.849-1.559,6.022-2.339,9.518-2.339
		c5.447,0,9.904,1.772,13.367,5.315c3.464,3.541,5.196,8.006,5.196,13.391c0,5.416-1.748,9.911-5.243,13.485
		s-7.904,5.36-13.225,5.36c-3.307,0-6.448-0.739-9.424-2.221c-2.976-1.479-5.242-3.66-6.802-6.541
		C215.675,715.528,214.895,712.025,214.895,707.899z M224.625,708.42c0,3.559,0.842,6.281,2.527,8.172
		c1.684,1.889,3.771,2.833,6.257,2.833c2.487,0,4.575-0.944,6.26-2.833c1.683-1.891,2.527-4.645,2.527-8.266
		c0-3.495-0.844-6.196-2.527-8.102c-1.686-1.904-3.773-2.857-6.26-2.857c-2.486,0-4.573,0.953-6.257,2.857
		C225.467,702.13,224.625,704.862,224.625,708.42z"/>
	<path d="M292.076,726.369h-9.494v-18.326c0-3.874-0.206-6.385-0.614-7.535c-0.41-1.148-1.071-2.038-1.983-2.668
		c-0.915-0.629-2.017-0.943-3.307-0.943c-1.638,0-3.11,0.455-4.416,1.367c-1.307,0.914-2.206,2.111-2.693,3.591
		c-0.489,1.479-0.733,4.235-0.733,8.266v16.249h-9.494v-35.898h8.832v5.243c3.118-4.063,7.056-6.094,11.81-6.094
		c2.109,0,4.03,0.378,5.762,1.134s3.047,1.724,3.944,2.906c0.897,1.18,1.518,2.51,1.867,3.991c0.346,1.48,0.519,3.605,0.519,6.376
		V726.369z"/>
	<path d="M301.711,685.606v-8.833h9.495v8.833H301.711z M301.711,726.369v-35.898h9.495v35.898H301.711z"/>
	<path d="M337.419,690.471v7.559h-6.518v14.453c0,2.96,0.063,4.676,0.189,5.148c0.125,0.472,0.408,0.865,0.85,1.182
		c0.439,0.314,0.976,0.471,1.606,0.471c0.881,0,2.157-0.298,3.826-0.897l0.803,7.368c-2.206,0.945-4.709,1.418-7.511,1.418
		c-1.699,0-3.235-0.283-4.604-0.852c-1.37-0.566-2.379-1.305-3.023-2.219c-0.645-0.914-1.094-2.156-1.348-3.73
		c-0.188-1.103-0.282-3.338-0.282-6.708v-15.634h-4.393v-7.559h4.393v-7.131l9.494-5.574v12.705H337.419z"/>
	<path d="M341.813,707.899c0-3.147,0.779-6.203,2.338-9.163c1.559-2.959,3.763-5.219,6.613-6.777s6.022-2.339,9.518-2.339
		c5.446,0,9.904,1.772,13.368,5.315c3.463,3.541,5.195,8.006,5.195,13.391c0,5.416-1.748,9.911-5.243,13.485
		s-7.903,5.36-13.226,5.36c-3.307,0-6.447-0.739-9.423-2.221c-2.976-1.479-5.243-3.66-6.802-6.541
		C342.592,715.528,341.813,712.025,341.813,707.899z M351.544,708.42c0,3.559,0.841,6.281,2.527,8.172
		c1.683,1.889,3.77,2.833,6.257,2.833s4.575-0.944,6.259-2.833c1.685-1.891,2.527-4.645,2.527-8.266
		c0-3.495-0.843-6.196-2.527-8.102c-1.684-1.904-3.771-2.857-6.259-2.857s-4.575,0.953-6.257,2.857
		C352.385,702.13,351.544,704.862,351.544,708.42z"/>
	<path d="M395.424,726.369h-9.494v-35.898h8.833v5.102c1.511-2.425,2.864-4.023,4.061-4.795c1.197-0.771,2.566-1.157,4.109-1.157
		c2.173,0,4.252,0.599,6.235,1.796l-2.93,8.313c-1.605-1.04-3.1-1.561-4.486-1.561c-1.323,0-2.441,0.363-3.354,1.088
		c-0.913,0.725-1.637,2.046-2.17,3.968c-0.537,1.921-0.805,5.936-0.805,12.045V726.369z"/>
	<path d="M424.521,726.369V685.18h-14.689v-8.406h39.392v8.406h-14.689v41.189H424.521z"/>
	<path d="M462.731,701.43l-8.643-1.559c0.975-3.495,2.646-6.078,5.006-7.747c2.362-1.669,5.874-2.504,10.534-2.504
		c4.25,0,7.415,0.505,9.492,1.513c2.081,1.008,3.536,2.283,4.371,3.826c0.833,1.543,1.252,4.377,1.252,8.501l-0.095,11.102
		c0,3.147,0.157,5.478,0.473,6.99c0.314,1.511,0.881,3.116,1.7,4.817h-9.4c-0.253-0.63-0.551-1.56-0.897-2.787
		c-0.159-0.565-0.268-0.944-0.331-1.133c-1.636,1.573-3.376,2.755-5.22,3.542c-1.841,0.787-3.818,1.181-5.928,1.181
		c-3.684,0-6.597-0.999-8.738-3c-2.142-1.998-3.21-4.541-3.21-7.628c0-2.014,0.488-3.817,1.464-5.408
		c0.975-1.589,2.338-2.81,4.086-3.659c1.747-0.853,4.259-1.591,7.533-2.223c4.44-0.816,7.525-1.589,9.258-2.313v-0.945
		c0-1.826-0.448-3.133-1.347-3.921c-0.897-0.786-2.606-1.179-5.125-1.179c-1.701,0-3.023,0.337-3.968,1.014
		S463.299,699.761,462.731,701.43z M475.438,709.129c-1.229,0.408-3.157,0.896-5.787,1.464c-2.629,0.566-4.353,1.118-5.172,1.653
		c-1.261,0.882-1.89,2-1.89,3.354c0,1.322,0.497,2.464,1.489,3.425c0.991,0.962,2.259,1.44,3.802,1.44
		c1.731,0,3.37-0.551,4.912-1.652c1.134-0.881,1.89-1.938,2.268-3.166c0.25-0.818,0.377-2.36,0.377-4.628V709.129z"/>
	<path d="M493.766,726.369v-49.596h9.494v17.853c2.929-3.335,6.392-5.006,10.391-5.006c4.377,0,7.999,1.59,10.865,4.771
		c2.864,3.182,4.298,7.732,4.298,13.652c0,6.141-1.458,10.863-4.369,14.169c-2.913,3.308-6.464,4.96-10.652,4.96
		c-2.048,0-4.069-0.512-6.068-1.536c-2-1.022-3.709-2.542-5.124-4.557v5.29H493.766z M503.164,707.618c0,3.716,0.6,6.47,1.796,8.265
		c1.637,2.52,3.826,3.779,6.565,3.779c2.079,0,3.857-0.897,5.338-2.693c1.479-1.795,2.22-4.611,2.22-8.455
		c0-4.093-0.747-7.053-2.244-8.88c-1.496-1.825-3.393-2.737-5.69-2.737c-2.3,0-4.205,0.889-5.716,2.667
		C503.921,701.344,503.164,704.027,503.164,707.618z"/>
	<path d="M536.465,726.369v-49.596h9.494v49.596H536.465z"/>
	<path d="M576.52,714.938l9.446,1.605c-1.227,3.465-3.149,6.103-5.764,7.913c-2.614,1.81-5.903,2.715-9.871,2.715
		c-6.234,0-10.848-2.031-13.839-6.093c-2.361-3.274-3.543-7.399-3.543-12.376c0-5.951,1.551-10.62,4.653-14.005
		s7.03-5.078,11.785-5.078c5.354,0,9.558,1.772,12.611,5.315c3.054,3.541,4.582,8.95,4.582,16.224h-23.9
		c0.063,2.804,0.826,4.993,2.292,6.565c1.463,1.575,3.28,2.361,5.454,2.361c1.513,0,2.771-0.408,3.779-1.228
		C575.213,718.04,575.983,716.733,576.52,714.938z M577.04,705.35c-0.064-2.771-0.773-4.873-2.127-6.305
		c-1.354-1.434-3.008-2.148-4.959-2.148c-2.048,0-3.748,0.755-5.102,2.267c-1.354,1.511-2.031,3.573-2.031,6.187H577.04z"/>
	<path d="M626.021,708.137l9.73,3.07c-1.481,5.416-3.952,9.439-7.416,12.068c-3.465,2.629-7.857,3.942-13.178,3.942
		c-6.583,0-11.998-2.249-16.249-6.753c-4.252-4.504-6.377-10.659-6.377-18.469c0-8.249,2.132-14.658,6.4-19.225
		c4.266-4.564,9.879-6.848,16.839-6.848c6.046,0,10.973,1.794,14.783,5.385c2.236,2.141,3.922,5.195,5.055,9.162l-9.919,2.362
		c-0.566-2.583-1.788-4.612-3.661-6.094c-1.873-1.479-4.134-2.22-6.777-2.22c-3.685,0-6.668,1.314-8.951,3.944
		s-3.425,6.903-3.425,12.824c0,6.266,1.126,10.73,3.378,13.391c2.25,2.661,5.188,3.99,8.809,3.99c2.646,0,4.929-0.85,6.849-2.55
		C623.832,714.419,625.201,711.758,626.021,708.137z"/>
	<path d="M653.747,676.773v18.231c3.056-3.589,6.708-5.385,10.96-5.385c2.203,0,4.187,0.409,5.951,1.228
		c1.764,0.821,3.085,1.859,3.968,3.119c0.881,1.26,1.488,2.661,1.817,4.202c0.332,1.544,0.497,3.921,0.497,7.134v21.066h-9.495
		v-18.988c0-3.747-0.182-6.132-0.542-7.156c-0.363-1.022-1.001-1.834-1.914-2.433c-0.914-0.598-2.063-0.896-3.447-0.896
		c-1.575,0-2.984,0.385-4.228,1.155c-1.244,0.773-2.15,1.93-2.717,3.472c-0.567,1.543-0.851,3.826-0.851,6.85v17.996h-9.492v-49.596
		H653.747z"/>
	<path d="M693.707,701.43l-8.644-1.559c0.976-3.495,2.646-6.078,5.006-7.747c2.362-1.669,5.874-2.504,10.534-2.504
		c4.251,0,7.416,0.505,9.494,1.513s3.534,2.283,4.369,3.826c0.834,1.543,1.252,4.377,1.252,8.501l-0.094,11.102
		c0,3.147,0.155,5.478,0.471,6.99c0.314,1.511,0.881,3.116,1.701,4.817h-9.4c-0.252-0.63-0.551-1.56-0.897-2.787
		c-0.157-0.565-0.268-0.944-0.329-1.133c-1.638,1.573-3.378,2.755-5.222,3.542c-1.841,0.787-3.817,1.181-5.927,1.181
		c-3.684,0-6.598-0.999-8.737-3c-2.144-1.998-3.212-4.541-3.212-7.628c0-2.014,0.487-3.817,1.463-5.408
		c0.976-1.589,2.338-2.81,4.086-3.659c1.747-0.853,4.259-1.591,7.533-2.223c4.441-0.816,7.527-1.589,9.259-2.313v-0.945
		c0-1.826-0.448-3.133-1.346-3.921c-0.898-0.786-2.606-1.179-5.126-1.179c-1.7,0-3.022,0.337-3.967,1.014
		C695.029,698.587,694.273,699.761,693.707,701.43z M706.413,709.129c-1.229,0.408-3.157,0.896-5.786,1.464
		c-2.63,0.566-4.354,1.118-5.173,1.653c-1.259,0.882-1.889,2-1.889,3.354c0,1.322,0.496,2.464,1.488,3.425
		c0.991,0.962,2.259,1.44,3.802,1.44c1.731,0,3.369-0.551,4.912-1.652c1.134-0.881,1.89-1.938,2.269-3.166
		c0.252-0.818,0.377-2.36,0.377-4.628V709.129z"/>
	<path d="M757.805,726.369h-9.494v-18.326c0-3.874-0.205-6.385-0.614-7.535c-0.409-1.148-1.071-2.038-1.983-2.668
		c-0.913-0.629-2.017-0.943-3.307-0.943c-1.639,0-3.11,0.455-4.417,1.367c-1.306,0.914-2.204,2.111-2.691,3.591
		c-0.489,1.479-0.733,4.235-0.733,8.266v16.249h-9.493v-35.898h8.832v5.243c3.118-4.063,7.054-6.094,11.81-6.094
		c2.109,0,4.03,0.378,5.762,1.134c1.73,0.756,3.046,1.724,3.944,2.906c0.897,1.18,1.52,2.51,1.865,3.991
		c0.346,1.48,0.521,3.605,0.521,6.376V726.369z"/>
	<path d="M766.59,728.73l10.817,1.322c0.188,1.26,0.614,2.127,1.274,2.598c0.914,0.693,2.33,1.04,4.252,1.04
		c2.486,0,4.347-0.378,5.573-1.134c0.851-0.504,1.479-1.307,1.89-2.408c0.314-0.789,0.473-2.237,0.473-4.346v-5.244
		c-2.834,3.874-6.424,5.811-10.77,5.811c-4.817,0-8.645-2.047-11.479-6.14c-2.203-3.213-3.304-7.21-3.304-11.997
		c0-6.047,1.447-10.66,4.344-13.842c2.896-3.181,6.503-4.771,10.816-4.771c4.439,0,8.107,1.954,11.006,5.858v-5.008h8.88v32.214
		c0,4.252-0.347,7.423-1.039,9.519c-0.693,2.094-1.677,3.738-2.953,4.936c-1.274,1.196-2.969,2.133-5.077,2.81
		c-2.109,0.678-4.77,1.016-7.983,1.016c-6.077,0-10.392-1.047-12.94-3.141c-2.552-2.095-3.827-4.747-3.827-7.96
		C766.543,729.549,766.559,729.172,766.59,728.73z M775.044,707.664c0,3.811,0.74,6.598,2.222,8.361
		c1.479,1.763,3.306,2.644,5.478,2.644c2.331,0,4.292-0.905,5.882-2.715c1.59-1.811,2.386-4.494,2.386-8.055
		c0-3.714-0.765-6.478-2.29-8.288c-1.529-1.811-3.473-2.715-5.834-2.715c-2.269,0-4.143,0.889-5.621,2.667
		C775.784,701.344,775.044,704.044,775.044,707.664z"/>
	<path d="M830.592,714.938l9.446,1.605c-1.227,3.465-3.149,6.103-5.763,7.913c-2.614,1.81-5.904,2.715-9.871,2.715
		c-6.236,0-10.849-2.031-13.84-6.093c-2.362-3.274-3.543-7.399-3.543-12.376c0-5.951,1.551-10.62,4.652-14.005
		s7.031-5.078,11.785-5.078c5.354,0,9.558,1.772,12.612,5.315c3.054,3.541,4.581,8.95,4.581,16.224h-23.9
		c0.063,2.804,0.827,4.993,2.292,6.565c1.464,1.575,3.281,2.361,5.454,2.361c1.513,0,2.771-0.408,3.779-1.228
		C829.285,718.04,830.056,716.733,830.592,714.938z M831.112,705.35c-0.065-2.771-0.773-4.873-2.127-6.305
		c-1.354-1.434-3.007-2.148-4.958-2.148c-2.048,0-3.749,0.755-5.102,2.267c-1.355,1.511-2.031,3.573-2.031,6.187H831.112z"/>
</g>
</svg>
