<?xml version="1.0" encoding="utf-8"?>
<!-- Generator: Adobe Illustrator 15.1.0, SVG Export Plug-In . SVG Version: 6.00 Build 0)  -->
<!DOCTYPE svg PUBLIC "-//W3C//DTD SVG 1.1//EN" "http://www.w3.org/Graphics/SVG/1.1/DTD/svg11.dtd">
<svg version="1.1" id="Layer_1" xmlns="http://www.w3.org/2000/svg" xmlns:xlink="http://www.w3.org/1999/xlink" x="0px" y="0px"
	 width="1000px" height="1000px" viewBox="0 0 1000 1000" enable-background="new 0 0 1000 1000" xml:space="preserve">
<path fill="#FABA13" d="M257.671,460.37v79.257c0,6.014-1.79,11.607-4.869,16.276c-2.236,3.396-5.149,6.3-8.552,8.522
	c-4.654,3.049-10.217,4.82-16.195,4.82h-79.257c-16.357,0-29.619-13.261-29.619-29.619V460.37c0-16.358,13.262-29.616,29.619-29.616
	h79.257C244.413,430.754,257.671,444.012,257.671,460.37z"/>
<path fill="#FDE402" d="M242.578,460.37v79.257c0,8.012-6.515,14.525-14.523,14.525h-79.257c-4.311,0-8.187-1.886-10.853-4.878
	c-2.285-2.565-3.673-5.946-3.673-9.647V460.37c0-8.009,6.514-14.522,14.525-14.522h79.257
	C236.063,445.848,242.578,452.361,242.578,460.37z"/>
<path fill="#FFFFFF" d="M184.922,497.951c-2.811,3.082-4.793,6.929-5.594,11.188l-11.121-9.916l-8.611-7.68l-21.65,57.731
	c-2.285-2.565-3.673-5.946-3.673-9.647v-14.944l20.203-53.878l20.31,18.109L184.922,497.951z"/>
<path fill="#010101" d="M252.802,555.903c-2.236,3.396-5.149,6.3-8.552,8.522l-21.251-21.252
	c-6.131,4.371-13.447,6.729-21.134,6.729c-20.134,0-36.517-16.379-36.517-36.517c0-5.02,1.017-9.807,2.858-14.163
	c1.609-3.806,3.847-7.287,6.578-10.309c6.689-7.39,16.353-12.041,27.08-12.041c8.227,0,15.824,2.734,21.935,7.341l-8.384,10.688
	c-3.797-2.794-8.485-4.446-13.551-4.446c-6.704,0-12.749,2.892-16.943,7.495c-2.811,3.082-4.793,6.929-5.594,11.188
	c-0.26,1.377-0.396,2.795-0.396,4.247c0,12.646,10.288,22.934,22.933,22.934c6.125,0,11.885-2.385,16.213-6.717
	c4.332-4.332,6.714-10.089,6.714-16.217c0-3.076-0.606-6.01-1.711-8.689l9.113-11.619c3.902,5.808,6.182,12.799,6.182,20.309
	c0,7.74-2.391,15.108-6.822,21.267L252.802,555.903z"/>
<ellipse fill="#00CC00" cx="201.901" cy="513.349" rx="23.692" ry="23.469"/>
<path fill="#FFFFFF" d="M240.021,483.099l-7.826,9.979l-9.113,11.619l-20.06,25.57l-23.693-21.128
	c0.801-4.259,2.783-8.105,5.594-11.188l16.536,14.743l13.958-17.792l8.384-10.688l7.039-8.976L240.021,483.099z"/>
<g>
	<path d="M280.397,521.649v-43.708h13.195l7.909,29.805l7.867-29.805h13.237v43.708h-8.2v-34.384l-8.7,34.384h-8.491l-8.617-34.384
		v34.384H280.397z"/>
	<path d="M329.351,505.373c0-2.774,0.687-5.467,2.061-8.075c1.373-2.608,3.315-4.6,5.827-5.974s5.308-2.061,8.388-2.061
		c4.801,0,8.728,1.562,11.78,4.684c3.053,3.121,4.579,7.056,4.579,11.801c0,4.773-1.54,8.735-4.62,11.885s-6.966,4.725-11.655,4.725
		c-2.914,0-5.683-0.652-8.305-1.957c-2.623-1.304-4.621-3.226-5.994-5.765C330.037,512.096,329.351,509.009,329.351,505.373z
		 M337.926,505.831c0,3.137,0.742,5.536,2.227,7.201s3.323,2.498,5.516,2.498c2.191,0,4.03-0.833,5.516-2.498
		c1.484-1.665,2.227-4.093,2.227-7.284c0-3.08-0.742-5.46-2.227-7.139c-1.485-1.679-3.324-2.519-5.516-2.519
		c-2.192,0-4.031,0.84-5.516,2.519S337.926,502.695,337.926,505.831z"/>
	<path d="M397.369,521.649h-8.367v-16.151c0-3.413-0.181-5.626-0.541-6.64c-0.361-1.013-0.944-1.796-1.749-2.352
		c-0.805-0.555-1.776-0.832-2.914-0.832c-1.442,0-2.74,0.402-3.892,1.207c-1.152,0.805-1.942,1.859-2.374,3.163
		c-0.43,1.305-0.644,3.733-0.644,7.285v14.319h-8.367v-31.637h7.784v4.621c2.747-3.58,6.216-5.37,10.406-5.37
		c1.859,0,3.552,0.333,5.079,0.999c1.525,0.666,2.685,1.52,3.476,2.561c0.791,1.04,1.339,2.213,1.645,3.518
		c0.305,1.305,0.458,3.178,0.458,5.619V521.649z"/>
	<path d="M405.86,485.726v-7.784h8.367v7.784H405.86z M405.86,521.649v-31.637h8.367v31.637H405.86z"/>
	<path d="M437.33,490.013v6.661h-5.744v12.737c0,2.608,0.055,4.121,0.166,4.537c0.11,0.416,0.36,0.764,0.749,1.041
		s0.86,0.416,1.416,0.416c0.776,0,1.9-0.264,3.371-0.791l0.708,6.494c-1.943,0.832-4.149,1.249-6.619,1.249
		c-1.498,0-2.851-0.25-4.059-0.75c-1.207-0.499-2.096-1.15-2.664-1.956c-0.568-0.805-0.964-1.9-1.187-3.288
		c-0.166-0.972-0.249-2.941-0.249-5.911v-13.778h-3.871v-6.661h3.871v-6.285l8.367-4.912v11.197H437.33z"/>
	<path d="M441.201,505.373c0-2.774,0.687-5.467,2.061-8.075s3.316-4.6,5.828-5.974c2.511-1.374,5.308-2.061,8.388-2.061
		c4.801,0,8.728,1.562,11.78,4.684c3.053,3.121,4.579,7.056,4.579,11.801c0,4.773-1.54,8.735-4.621,11.885
		c-3.08,3.149-6.966,4.725-11.655,4.725c-2.914,0-5.682-0.652-8.305-1.957c-2.622-1.304-4.62-3.226-5.994-5.765
		C441.888,512.096,441.201,509.009,441.201,505.373z M449.776,505.831c0,3.137,0.742,5.536,2.228,7.201
		c1.483,1.665,3.322,2.498,5.515,2.498s4.031-0.833,5.516-2.498s2.228-4.093,2.228-7.284c0-3.08-0.743-5.46-2.228-7.139
		s-3.323-2.519-5.516-2.519s-4.031,0.84-5.515,2.519C450.519,500.288,449.776,502.695,449.776,505.831z"/>
	<path d="M488.448,521.649h-8.367v-31.637h7.784v4.496c1.332-2.137,2.525-3.545,3.58-4.226c1.055-0.68,2.262-1.02,3.621-1.02
		c1.915,0,3.747,0.527,5.495,1.582l-2.581,7.326c-1.415-0.916-2.733-1.374-3.954-1.374c-1.166,0-2.151,0.319-2.956,0.958
		s-1.443,1.804-1.914,3.496c-0.473,1.693-0.708,5.231-0.708,10.615V521.649z"/>
	<path d="M514.091,521.649v-36.299h-12.946v-7.409h34.717v7.409h-12.946v36.299H514.091z"/>
	<path d="M547.766,499.671l-7.617-1.374c0.859-3.08,2.331-5.355,4.412-6.827c2.081-1.471,5.176-2.206,9.283-2.206
		c3.746,0,6.535,0.444,8.366,1.332c1.832,0.889,3.115,2.013,3.851,3.372c0.735,1.36,1.104,3.857,1.104,7.492l-0.083,9.783
		c0,2.774,0.138,4.828,0.416,6.16c0.277,1.332,0.776,2.747,1.498,4.246h-8.283c-0.223-0.555-0.486-1.374-0.791-2.456
		c-0.14-0.499-0.236-0.832-0.291-0.999c-1.443,1.388-2.977,2.429-4.601,3.122c-1.623,0.693-3.365,1.041-5.224,1.041
		c-3.247,0-5.814-0.881-7.701-2.644c-1.888-1.762-2.83-4.003-2.83-6.723c0-1.775,0.43-3.365,1.29-4.767
		c0.859-1.4,2.061-2.477,3.601-3.226c1.54-0.75,3.753-1.401,6.64-1.957c3.913-0.721,6.632-1.4,8.159-2.039v-0.833
		c0-1.609-0.396-2.761-1.187-3.455c-0.791-0.693-2.297-1.04-4.517-1.04c-1.499,0-2.664,0.298-3.497,0.895
		C548.932,497.166,548.266,498.2,547.766,499.671z M558.964,506.456c-1.083,0.36-2.783,0.79-5.1,1.29
		c-2.317,0.499-3.837,0.985-4.559,1.457c-1.11,0.777-1.665,1.763-1.665,2.955c0,1.166,0.438,2.172,1.312,3.019
		s1.991,1.27,3.351,1.27c1.526,0,2.97-0.485,4.329-1.457c1-0.776,1.666-1.707,1.999-2.789c0.222-0.722,0.333-2.081,0.333-4.079
		V506.456z"/>
	<path d="M575.115,521.649v-43.708h8.366v15.734c2.581-2.94,5.634-4.412,9.158-4.412c3.857,0,7.049,1.401,9.574,4.204
		c2.525,2.804,3.788,6.813,3.788,12.03c0,5.412-1.284,9.574-3.851,12.488c-2.567,2.914-5.696,4.371-9.387,4.371
		c-1.805,0-3.587-0.452-5.349-1.354c-1.763-0.901-3.269-2.24-4.517-4.017v4.662H575.115z M583.398,505.124
		c0,3.274,0.527,5.702,1.582,7.284c1.442,2.221,3.372,3.33,5.786,3.33c1.832,0,3.399-0.791,4.704-2.373
		c1.304-1.581,1.956-4.064,1.956-7.451c0-3.606-0.659-6.216-1.978-7.825c-1.318-1.609-2.99-2.414-5.015-2.414
		c-2.026,0-3.705,0.784-5.037,2.352C584.064,499.595,583.398,501.96,583.398,505.124z"/>
	<path d="M612.746,521.649v-43.708h8.366v43.708H612.746z"/>
	<path d="M648.045,511.576l8.325,1.415c-1.082,3.053-2.775,5.377-5.079,6.973s-5.203,2.394-8.699,2.394
		c-5.495,0-9.561-1.79-12.197-5.37c-2.081-2.886-3.122-6.521-3.122-10.906c0-5.245,1.367-9.359,4.101-12.343
		c2.733-2.982,6.195-4.475,10.386-4.475c4.718,0,8.423,1.562,11.114,4.684c2.691,3.121,4.038,7.888,4.038,14.298h-21.063
		c0.056,2.471,0.729,4.399,2.02,5.786c1.29,1.389,2.893,2.082,4.808,2.082c1.332,0,2.441-0.36,3.33-1.083
		C646.893,514.31,647.572,513.157,648.045,511.576z M648.503,503.126c-0.057-2.442-0.681-4.295-1.874-5.558s-2.65-1.894-4.37-1.894
		c-1.805,0-3.303,0.666-4.496,1.998s-1.79,3.149-1.79,5.453H648.503z"/>
	<path d="M691.67,505.581l8.575,2.706c-1.305,4.773-3.483,8.319-6.535,10.636c-3.054,2.317-6.925,3.476-11.614,3.476
		c-5.801,0-10.573-1.983-14.319-5.952c-3.747-3.969-5.62-9.394-5.62-16.276c0-7.271,1.88-12.918,5.641-16.942
		c3.76-4.023,8.706-6.035,14.84-6.035c5.328,0,9.671,1.581,13.029,4.745c1.97,1.888,3.455,4.579,4.454,8.075l-8.742,2.082
		c-0.499-2.275-1.575-4.065-3.226-5.37c-1.651-1.304-3.643-1.956-5.974-1.956c-3.247,0-5.876,1.158-7.888,3.476
		c-2.013,2.317-3.019,6.084-3.019,11.302c0,5.522,0.992,9.456,2.977,11.801c1.983,2.346,4.571,3.518,7.764,3.518
		c2.331,0,4.343-0.749,6.035-2.248C689.74,511.118,690.948,508.773,691.67,505.581z"/>
	<path d="M716.104,477.941v16.067c2.692-3.163,5.911-4.745,9.658-4.745c1.941,0,3.69,0.361,5.245,1.082
		c1.554,0.723,2.719,1.638,3.496,2.748c0.776,1.11,1.312,2.345,1.603,3.704c0.292,1.36,0.438,3.455,0.438,6.286v18.565h-8.367
		v-16.734c0-3.302-0.16-5.404-0.479-6.306c-0.319-0.901-0.882-1.616-1.687-2.145c-0.805-0.526-1.817-0.79-3.038-0.79
		c-1.389,0-2.63,0.34-3.726,1.02c-1.097,0.681-1.895,1.7-2.394,3.06c-0.5,1.359-0.75,3.372-0.75,6.036v15.859h-8.366v-43.708
		H716.104z"/>
	<path d="M751.32,499.671l-7.617-1.374c0.859-3.08,2.331-5.355,4.412-6.827c2.081-1.471,5.176-2.206,9.283-2.206
		c3.746,0,6.535,0.444,8.366,1.332c1.832,0.889,3.115,2.013,3.851,3.372c0.735,1.36,1.104,3.857,1.104,7.492l-0.083,9.783
		c0,2.774,0.138,4.828,0.416,6.16c0.277,1.332,0.776,2.747,1.498,4.246h-8.283c-0.223-0.555-0.486-1.374-0.791-2.456
		c-0.14-0.499-0.236-0.832-0.291-0.999c-1.443,1.388-2.977,2.429-4.601,3.122c-1.623,0.693-3.365,1.041-5.224,1.041
		c-3.247,0-5.814-0.881-7.701-2.644c-1.888-1.762-2.83-4.003-2.83-6.723c0-1.775,0.43-3.365,1.29-4.767
		c0.859-1.4,2.061-2.477,3.601-3.226c1.54-0.75,3.753-1.401,6.64-1.957c3.913-0.721,6.632-1.4,8.159-2.039v-0.833
		c0-1.609-0.396-2.761-1.187-3.455c-0.791-0.693-2.297-1.04-4.517-1.04c-1.499,0-2.664,0.298-3.497,0.895
		C752.486,497.166,751.82,498.2,751.32,499.671z M762.519,506.456c-1.083,0.36-2.783,0.79-5.1,1.29
		c-2.317,0.499-3.837,0.985-4.559,1.457c-1.11,0.777-1.665,1.763-1.665,2.955c0,1.166,0.438,2.172,1.312,3.019
		s1.991,1.27,3.351,1.27c1.526,0,2.97-0.485,4.329-1.457c1-0.776,1.666-1.707,1.999-2.789c0.222-0.722,0.333-2.081,0.333-4.079
		V506.456z"/>
	<path d="M807.809,521.649h-8.367v-16.151c0-3.413-0.181-5.626-0.541-6.64c-0.361-1.013-0.944-1.796-1.748-2.352
		c-0.806-0.555-1.776-0.832-2.914-0.832c-1.443,0-2.741,0.402-3.893,1.207s-1.942,1.859-2.372,3.163
		c-0.431,1.305-0.646,3.733-0.646,7.285v14.319h-8.367v-31.637h7.784v4.621c2.747-3.58,6.216-5.37,10.407-5.37
		c1.858,0,3.552,0.333,5.078,0.999c1.525,0.666,2.685,1.52,3.476,2.561c0.791,1.04,1.339,2.213,1.645,3.518
		c0.305,1.305,0.458,3.178,0.458,5.619V521.649z"/>
	<path d="M815.551,523.73l9.533,1.166c0.166,1.109,0.541,1.873,1.124,2.289c0.805,0.61,2.053,0.916,3.746,0.916
		c2.191,0,3.83-0.333,4.912-0.999c0.749-0.444,1.304-1.152,1.665-2.123c0.277-0.694,0.416-1.971,0.416-3.83v-4.62
		c-2.497,3.413-5.661,5.12-9.491,5.12c-4.245,0-7.617-1.804-10.115-5.411c-1.942-2.831-2.913-6.354-2.913-10.573
		c0-5.328,1.275-9.394,3.829-12.197c2.553-2.803,5.73-4.204,9.532-4.204c3.913,0,7.146,1.721,9.699,5.162v-4.413h7.826v28.39
		c0,3.747-0.306,6.542-0.916,8.388s-1.478,3.295-2.602,4.351c-1.124,1.054-2.616,1.88-4.475,2.477
		c-1.859,0.597-4.204,0.895-7.035,0.895c-5.356,0-9.158-0.923-11.405-2.768c-2.248-1.846-3.372-4.184-3.372-7.015
		C815.51,524.452,815.523,524.119,815.551,523.73z M823.002,505.165c0,3.358,0.652,5.814,1.957,7.368
		c1.304,1.555,2.914,2.331,4.828,2.331c2.054,0,3.781-0.798,5.183-2.394s2.103-3.961,2.103-7.098c0-3.273-0.673-5.709-2.019-7.306
		c-1.347-1.595-3.06-2.393-5.142-2.393c-1.998,0-3.649,0.784-4.953,2.352C823.654,499.595,823.002,501.975,823.002,505.165z"/>
	<path d="M871.955,511.576l8.325,1.415c-1.082,3.053-2.775,5.377-5.079,6.973s-5.203,2.394-8.699,2.394
		c-5.495,0-9.561-1.79-12.197-5.37c-2.081-2.886-3.122-6.521-3.122-10.906c0-5.245,1.367-9.359,4.101-12.343
		c2.733-2.982,6.195-4.475,10.386-4.475c4.718,0,8.423,1.562,11.114,4.684c2.691,3.121,4.038,7.888,4.038,14.298h-21.063
		c0.056,2.471,0.729,4.399,2.02,5.786c1.29,1.389,2.893,2.082,4.808,2.082c1.332,0,2.441-0.36,3.33-1.083
		C870.803,514.31,871.482,513.157,871.955,511.576z M872.413,503.126c-0.057-2.442-0.681-4.295-1.874-5.558s-2.65-1.894-4.37-1.894
		c-1.805,0-3.303,0.666-4.496,1.998s-1.79,3.149-1.79,5.453H872.413z"/>
</g>
</svg>
